<svg width="10" height="11" viewBox="0 0 10 11" fill="none" xmlns="http://www.w3.org/2000/svg">
<path fill-rule="evenodd" clip-rule="evenodd" d="M8.29655 2.1398C8.6497 1.68852 8.58339 1.04677 8.14845 0.706405C7.71351 0.366044 7.07464 0.455963 6.72149 0.907245L4.38291 3.89567L1.73962 1.25238C1.32409 0.83685 0.670658 0.816582 0.280134 1.20711C-0.110391 1.59763 -0.0901231 2.25106 0.325402 2.66659L3.14121 5.4824L0.799964 8.47423C0.446814 8.92552 0.513119 9.56727 0.948059 9.90763C1.383 10.248 2.02187 10.1581 2.37502 9.70679L4.56591 6.9071L7.29283 9.63402C7.70836 10.0495 8.36179 10.0698 8.75232 9.67929C9.14284 9.28877 9.12257 8.63533 8.70705 8.21981L5.80761 5.32037L8.29655 2.1398Z" fill="#D9D9D9"/>
</svg>
